<?xml version="1.0"?><svg width="1440" height="1440" xmlns="http://www.w3.org/2000/svg">
 <!-- Created with SVG-edit - http://svg-edit.googlecode.com/ -->
 <title>red white whale</title>
 <g>
  <title>Layer 1</title>
  <g externalResourcesRequired="false" id="svg_372">
   <path id="svg_3" fill="#bfbfbf" d="m993.784973,737.926025c-343.040955,-23.411011 -349.957947,307.323975 -554.407959,307.323975c-175.147003,0 -155.766022,-160.012024 -146.620026,-205.854004c20.279022,-1.286987 47.27002,-7.549988 80.438019,-25.219971c88.636993,-47.234009 35.001007,-139.184021 35.001007,-139.184021c-1.733002,32.187988 -51.981018,35.119019 -51.981018,35.119019c-93.929993,3.719971 -104.559998,66.250977 -107.71199,99.509949c-12.327011,-24.782959 -41.824005,-70.131958 -90.778,-66.295959c-66.141304,5.177979 -52.507004,27.638977 -123.420105,-3.458984c0,0 -10.955801,89.747986 98.830093,112.545959c28.534012,5.926025 51.007004,5.679993 68.483002,2.493042c-6.57399,479.584961 535.033005,589.084961 868.412033,468.39502c384,-139 266.789917,-561.96405 -76.245056,-585.374023z"/>
   <path id="svg_4" fill="#bfbfbf" d="m976.929993,709.90802c10.765991,-19.188049 86.990051,-151.911011 226.500061,-121.302002c308.22998,67.638977 253.709961,-276.84903 10.72998,-223.633026c-190.360046,41.700012 -247.636047,333.665009 -252.288025,359.901031c0,0 -0.53302,3.528992 1.127991,4.272949c6.557983,2.900024 13.929993,-19.238953 13.929993,-19.238953z"/>
   <path id="svg_5" fill="#ff0000" d="m966.406006,542.142029c13.427002,-48.064026 -55.362976,-441.30304 210.703979,-382.397034c134.579956,29.796005 99.51001,208.019012 -37.920044,212.056c-129.039917,3.785004 -139.555969,123.076996 -159.947937,169.245026c0,0 -2.608032,7.640991 -7.721985,7.238953c0,0 -6.722046,-0.407959 -5.114014,-6.142944z"/>
   <path id="svg_6" fill="#bfbfbf" d="m950.398987,725.044983c0,0 42.79303,-789.716675 -442.994995,-620.828979c0,0 -224.462982,88.435989 -83.824982,285.484985c55.102997,77.196014 181.780975,77.070007 275.863983,62.733002c0,0 80.473022,-14.880005 134.512024,39.925018c54.050964,54.804016 94.727966,219.369019 102.08197,231.554993c8.278015,13.754028 14.362,1.130981 14.362,1.130981z"/>
   <g id="svg_7">
    <path id="svg_8" fill="#003f7f" d="m953.549988,1017.23999c15.621033,18.290039 39.062988,23.280029 52.350037,11.130005c13.269958,-12.210022 11.339966,-36.932983 -4.290039,-55.237c-15.666016,-18.343018 -39.102966,-23.304993 -52.357971,-11.133972c-13.256042,12.185974 -11.363037,36.897949 4.297974,55.240967z"/>
    <path id="svg_9" fill="#003f7f" d="m1198.550049,1235.790039c0,0 -184.190063,55.73999 -232.531067,-100.02002c0,0 -3.339966,-5.209961 0.934021,-7.920044c5.344971,-3.380005 13.445007,0.599976 13.445007,0.599976c42.34198,151.790039 214.051941,94.48999 214.051941,94.48999s8.210083,1.640015 9.480103,4.300049c1.269897,2.660034 -0.119995,7.97998 -5.380005,8.550049z"/>
    <path id="svg_10" fill="#003f7f" d="m973.989014,709.90802c10.765991,-19.188049 86.990967,-151.911011 226.500977,-121.302002c308.22998,67.638977 253.709961,-276.84903 10.72998,-223.633026c-190.359985,41.700012 -247.636963,333.665009 -252.289978,359.901031c0,0 -0.531982,3.528992 1.129028,4.272949c6.557983,2.900024 13.929993,-19.238953 13.929993,-19.238953z"/>
    <path id="svg_11" fill="#003f7f" d="m950.398987,725.044983c0,0 42.79303,-789.716675 -442.994995,-620.828979c0,0 -224.462982,88.435989 -83.824982,285.484985c55.102997,77.196014 181.780975,77.070007 275.863983,62.733002c0,0 80.473022,-14.880005 134.512024,39.925018c54.050964,54.804016 94.727966,219.369019 102.08197,231.554993c8.278015,13.754028 14.362,1.130981 14.362,1.130981z"/>
   </g>
  </g>
 </g>
</svg>